#!OML:ASF H:\Not Pregnant\Project 1\Capture day 1\Session 1\non-pregnant.ASF
:FULLY-SPECIFIED
:DEGREES
795
root 5.15287 16.2836 13.3277 21.9253 -36.3611 -11.7179
lowerback -2.80917 -0.577918 8.59544
upperback -5.87472 -0.773695 2.14852
thorax -4.6463 -0.74887 -2.5513
lowerneck 4.74876 -1.74905 -28.2398
upperneck 6.35476 -6.02394 39.0855
head 3.03285 -3.5992 20.2574
rclavicle 6.1294e-014 -7.95139e-016
rhumerus -14.421 -21.1198 -21.6426
rradius 130.711
rwrist 7.92601
rhand -21.9046 -1.89894
rfingers 7.12502
rthumb 4.50087 -31.8311
lclavicle 6.1294e-014 -7.95139e-016
lhumerus -53.2813 -9.23958 95.516
lradius 71.2445
lwrist 63.1715
lhand -27.0458 0.0180649
lfingers 7.12502
lthumb -0.464311 29.9973
rfemur -6.15423 -2.24262 25.3721
rtibia 6.47379
rfoot -8.45683 26.6501
rtoes 12.4954
lfemur -33.3819 6.50257 4.53346
ltibia 23.9736
lfoot 1.90361 10.599
ltoes -26.2742
796
root 5.15196 16.279 13.3564 22.2224 -36.6103 -11.8885
lowerback -2.96107 -0.643437 8.59179
upperback -5.99402 -0.870544 2.29724
thorax -4.69485 -0.800251 -2.39243
lowerneck 4.63784 -1.65714 -28.2343
upperneck 6.71218 -5.92827 38.8755
head 3.09775 -3.53181 20.1424
rclavicle 2.48294e-014 3.75703e-014
rhumerus -14.0035 -22.6578 -22.2467
rradius 131.362
rwrist 8.51851
rhand -24.6278 -2.64259
rfingers 7.12502
rthumb 1.871 -32.6141
lclavicle 2.48294e-014 3.75703e-014
lhumerus -53.3587 -9.58771 96.0666
lradius 71.0216
lwrist 63.0975
lhand -26.8498 0.00276573
lfingers 7.12502
lthumb -0.275058 29.9823
rfemur -6.28302 -1.58182 25.2493
rtibia 6.3759
rfoot -7.9541 26.3882
rtoes 14.1687
lfemur -33.2176 5.98926 5.0633
ltibia 23.2847
lfoot 2.44675 11.152
ltoes -26.3204
797
root 5.15226 16.2735 13.3861 22.5068 -36.7949 -12.0512
lowerback -3.09962 -0.718211 8.59283
upperback -6.11472 -0.978028 2.4516
thorax -4.75325 -0.857287 -2.22994
lowerneck 4.52601 -1.57711 -28.2256
upperneck 7.05983 -5.84697 38.6629
head 3.16692 -3.47225 20.0249
rclavicle 6.40956e-014 -1.8487e-014
rhumerus -13.5792 -24.1577 -22.9006
rradius 131.996
rwrist 9.0245
rhand -27.2333 -3.38762
rfingers 7.12502
rthumb -0.645458 -33.3664
lclavicle 6.40956e-014 -1.8487e-014
lhumerus -53.4038 -9.94793 96.6165
lradius 70.822
lwrist 63.2542
lhand -26.6811 -0.0167173
lfingers 7.12502
lthumb -0.112113 29.963
rfemur -6.42372 -0.997693 25.1316
rtibia 6.32885
rfoot -7.54512 26.1319
rtoes 15.6835
lfemur -33.1171 5.52447 5.53205
ltibia 22.696
lfoot 2.9339 11.4888
ltoes -26.344
798
root 5.15382 16.267 13.4171 22.7718 -36.9243 -12.2015
lowerback -3.21895 -0.805098 8.5873
upperback -6.23766 -1.09909 2.61491
thorax -4.82547 -0.920974 -2.05387
lowerneck 4.41763 -1.5044 -28.2209
upperneck 7.39749 -5.77421 38.4475
head 3.23717 -3.41811 19.9075
rclavicle -5.54733e-015 1.68967e-014
rhumerus -13.141 -25.6181 -23.6035
rradius 132.619
rwrist 9.46812
rhand -29.6795 -4.02815
rfingers 7.12502
rthumb -3.00793 -33.9867
lclavicle -5.54733e-015 1.68967e-014
lhumerus -53.4252 -10.317 97.1788
lradius 70.6367
lwrist 63.6041
lhand -26.5832 -0.125281
lfingers 7.12502
lthumb -0.0175252 29.8545
rfemur -6.57253 -0.471402 25.0112
rtibia 6.33412
rfoot -7.24152 25.8699
rtoes 17.0144
lfemur -33.0688 5.12039 5.92918
ltibia 22.2001
lfoot 3.44347 11.577
ltoes -26.4627
799
root 5.15681 16.2594 13.4495 23.0206 -37.0031 -12.3436
lowerback -3.32286 -0.895158 8.58542
upperback -6.35905 -1.22259 2.7788
thorax -4.90462 -0.98603 -1.87884
lowerneck 4.31639 -1.44585 -28.2096
upperneck 7.71299 -5.71866 38.2341
head 3.30791 -3.37403 19.7891
rclavicle 3.82132e-014 1.37161e-014
rhumerus -12.7093 -27.0532 -24.3514
rradius 133.236
rwrist 9.88307
rhand -31.9688 -4.57089
rfingers 7.12502
rthumb -5.21857 -34.4866
lclavicle 3.82132e-014 1.37161e-014
lhumerus -53.4175 -10.7227 97.7573
lradius 70.443
lwrist 64.008
lhand -26.5399 -0.299917
lfingers 7.12502
lthumb 0.0242802 29.6798
rfemur -6.72849 0.00273711 24.8898
rtibia 6.38822
rfoot -7.04221 25.6042
rtoes 18.1483
lfemur -33.0653 4.77429 6.25809
ltibia 21.7897
lfoot 4.04442 11.3961
ltoes -26.8175
800
root 5.1612 16.2508 13.4838 23.2481 -37.0373 -12.477
lowerback -3.41038 -0.985493 8.58893
upperback -6.48161 -1.34429 2.94688
thorax -4.99372 -1.05052 -1.7019
lowerneck 4.23419 -1.39661 -28.2095
upperneck 8.0093 -5.67676 38.0221
head 3.37644 -3.3396 19.6745
rclavicle 5.47496e-014 3.37934e-015
rhumerus -12.2884 -28.46 -25.1224
rradius 133.85
rwrist 10.2925
rhand -34.099 -5.03563
rfingers 7.12502
rthumb -7.27511 -34.8906
lclavicle 5.47496e-014 3.37934e-015
lhumerus -53.3942 -11.1617 98.3739
lradius 70.2235
lwrist 64.3262
lhand -26.5492 -0.526261
lfingers 7.12502
lthumb 0.0153324 29.4535
rfemur -6.87584 0.430084 24.7679
rtibia 6.47438
rfoot -6.94401 25.3335
rtoes 19.0728
lfemur -33.0975 4.46085 6.52885
ltibia 21.4658
lfoot 4.74261 10.9418
ltoes -27.3599
